<svg xmlns="http://www.w3.org/2000/svg" viewBox="0 0 601.37 603.93"><defs><style>.cls-1,.cls-2{fill:none;stroke-miterlimit:10;stroke-width:60px;}.cls-1{stroke:#b0c9f7;stroke-linecap:round;}.cls-2{stroke:#36f;}</style></defs><g id="Layer_5" data-name="Layer 5"><path class="cls-1" d="M246.37,364.73s16.18,36.61,58.31,34.52a65.4,65.4,0,0,0,56.64-36.87"/></g><g id="Layer_4" data-name="Layer 4"><path class="cls-2" d="M300.69,31.88s-33-2.63-48.2,26.17L205,159a26.8,26.8,0,0,1-17.87,19C171.92,183,74.6,194.53,74.6,194.53s-39,4.24-40.66,48.28c0,0-3.39,12.71,6.77,27.11l83,96.56s8.77,12.21,7.17,22L109.61,504.73s-4.32,28.7,20.52,53.55c0,0,24.28,21.08,54.58,9l96.57-50.83s16.94-9.31,33.88.85l99.95,50.82s24.57,11.86,42.35-5.08c0,0,27.11-17.79,24.57-46.59L469.32,393.59s-5.93-11.86,5.09-22l77.08-83s19.48-17.78,16.09-38.11c0,0,0-44.9-42.35-50.83l-96.57-16.94s-19.48,1.7-30.49-20.33L347.35,61.54S342.27,35.65,300.69,31.88Z"/></g></svg>